<svg width="48" height="48" viewBox="0 0 48 48" fill="none" xmlns="http://www.w3.org/2000/svg">
<mask id="mask0_249_401" style="mask-type:alpha" maskUnits="userSpaceOnUse" x="4" y="3" width="40" height="42">
<path d="M19 4.78592C22.094 2.99959 25.906 2.99959 29 4.78592L38.0526 10.0124C41.1466 11.7987 43.0526 15.1 43.0526 18.6727V29.1257C43.0526 32.6983 41.1466 35.9996 38.0526 37.7859L29 43.0124C25.906 44.7987 22.094 44.7987 19 43.0124L9.94744 37.7859C6.85343 35.9996 4.94744 32.6983 4.94744 29.1257V18.6727C4.94744 15.1 6.85343 11.7987 9.94744 10.0124L19 4.78592Z" fill="#C4C4C4"/>
</mask>
<g mask="url(#mask0_249_401)">
<path d="M19 4.78592C22.094 2.99959 25.906 2.99959 29 4.78592L38.0526 10.0124C41.1466 11.7987 43.0526 15.1 43.0526 18.6727V29.1257C43.0526 32.6983 41.1466 35.9996 38.0526 37.7859L29 43.0124C25.906 44.7987 22.094 44.7987 19 43.0124L9.94744 37.7859C6.85343 35.9996 4.94744 32.6983 4.94744 29.1257V18.6727C4.94744 15.1 6.85343 11.7987 9.94744 10.0124L19 4.78592Z" fill="#EA1D5D"/>
<path d="M16.5001 15.1172C15.6716 15.1172 15.0001 15.7887 15.0001 16.6172V24.0189C15 24.0278 15.0001 24.0367 15.0002 24.0455C15.0092 25.8252 15.5456 27.5622 16.5416 29.0371C17.5376 30.5119 18.9485 31.6583 20.596 32.3314C22.2434 33.0045 24.0535 33.1741 25.7973 32.8187C27.5412 32.4634 29.1405 31.599 30.3931 30.3348C31.6457 29.0707 32.4955 27.4635 32.8349 25.7165C33.1743 23.9695 32.9882 22.161 32.2999 20.5198C31.6118 18.8785 30.4525 17.4782 28.9686 16.4958C27.4847 15.5133 25.7429 14.9928 23.9632 15.0001C23.7659 15.0009 23.5706 15.0407 23.3885 15.1172C23.2066 15.1935 23.0414 15.305 22.9024 15.4453C22.7636 15.5854 22.6536 15.7516 22.5789 15.9343C22.5042 16.117 22.4663 16.3126 22.4671 16.5101C22.4681 16.7074 22.5079 16.9027 22.5843 17.0846C22.6607 17.2666 22.7722 17.4318 22.9123 17.5708C23.0525 17.7097 23.2187 17.8196 23.4014 17.8943C23.5842 17.9689 23.7798 18.0069 23.9771 18.006C25.1634 18.0007 26.3248 18.3472 27.3141 19.0019C28.3035 19.6565 29.0765 20.5899 29.5354 21.6839C29.9944 22.7778 30.1187 23.9833 29.8925 25.148C29.6664 26.3125 29.1 27.3838 28.265 28.2266C27.4299 29.0693 26.3638 29.6455 25.2013 29.8822C24.0388 30.119 22.8322 30.0058 21.7341 29.5569C20.636 29.1081 19.6957 28.3436 19.032 27.3603C18.3683 26.377 18.0112 25.2184 18.0056 24.032C18.0058 23.9873 18.0039 23.9427 18.0001 23.8984V16.6172C18.0001 15.7887 17.3285 15.1172 16.5001 15.1172Z" fill="white"/>
<path d="M25.8852 22.4323C26.8387 23.3858 26.8387 24.9318 25.8851 25.8854C24.9316 26.8389 23.3856 26.8389 22.432 25.8854C21.4785 24.9318 21.4785 23.3858 22.432 22.4323C23.3856 21.4787 24.9316 21.4787 25.8852 22.4323Z" fill="white"/>
<path d="M16.5001 15.1172C15.6716 15.1172 15.0001 15.7887 15.0001 16.6172V24.0189C15 24.0278 15.0001 24.0367 15.0002 24.0455C15.0092 25.8252 15.5456 27.5622 16.5416 29.0371C17.5376 30.5119 18.9485 31.6583 20.596 32.3314C22.2434 33.0045 24.0535 33.1741 25.7973 32.8187C27.5412 32.4634 29.1405 31.599 30.3931 30.3348C31.6457 29.0707 32.4955 27.4635 32.8349 25.7165C33.1743 23.9695 32.9882 22.161 32.2999 20.5198C31.6118 18.8785 30.4525 17.4782 28.9686 16.4958C27.4847 15.5133 25.7429 14.9928 23.9632 15.0001C23.7659 15.0009 23.5706 15.0407 23.3885 15.1172C23.2066 15.1935 23.0414 15.305 22.9024 15.4453C22.7636 15.5854 22.6536 15.7516 22.5789 15.9343C22.5042 16.117 22.4663 16.3126 22.4671 16.5101C22.4681 16.7074 22.5079 16.9027 22.5843 17.0846C22.6607 17.2666 22.7722 17.4318 22.9123 17.5708C23.0525 17.7097 23.2187 17.8196 23.4014 17.8943C23.5842 17.9689 23.7798 18.0069 23.9771 18.006C25.1634 18.0007 26.3248 18.3472 27.3141 19.0019C28.3035 19.6565 29.0765 20.5899 29.5354 21.6839C29.9944 22.7778 30.1187 23.9833 29.8925 25.148C29.6664 26.3125 29.1 27.3838 28.265 28.2266C27.4299 29.0693 26.3638 29.6455 25.2013 29.8822C24.0388 30.119 22.8322 30.0058 21.7341 29.5569C20.636 29.1081 19.6957 28.3436 19.032 27.3603C18.3683 26.377 18.0112 25.2184 18.0056 24.032C18.0058 23.9873 18.0039 23.9427 18.0001 23.8984V16.6172C18.0001 15.7887 17.3285 15.1172 16.5001 15.1172Z" stroke="white" stroke-width="0.8"/>
<path d="M25.8852 22.4323C26.8387 23.3858 26.8387 24.9318 25.8851 25.8854C24.9316 26.8389 23.3856 26.8389 22.432 25.8854C21.4785 24.9318 21.4785 23.3858 22.432 22.4323C23.3856 21.4787 24.9316 21.4787 25.8852 22.4323Z" stroke="white" stroke-width="0.8"/>
</g>
</svg>
