<svg width="535" height="434" viewBox="0 0 535 434" fill="none" xmlns="http://www.w3.org/2000/svg">
<path d="M532.351 275.633C517.715 354.418 372.631 383.614 287.721 412.45C202.81 441.287 176.245 439.204 124.781 414.047C73.3166 388.889 59.9672 368.817 40.6919 291.695C21.4167 214.573 -33.8412 97.4877 32.2598 43.8608C98.3607 -9.76623 253.791 -14.0008 357.977 34.2852C462.162 82.5711 546.988 196.849 532.351 275.633ZM532.351 275.633C517.715 354.418 372.631 383.614 287.721 412.45" stroke="url(#paint0_linear_249_803)" stroke-width="0.5"/>
<path d="M520.306 272.972C506.334 348.176 367.846 376.045 286.795 403.57C205.744 431.096 180.386 429.108 131.261 405.094C82.1362 381.08 69.3935 361.92 50.9944 288.304C32.5953 214.687 -20.1509 102.924 42.9455 51.7349C106.042 0.545529 254.407 -3.49652 353.857 42.5946C453.307 88.6857 534.277 197.769 520.306 272.972ZM520.306 272.972C506.334 348.176 367.846 376.045 286.795 403.57" stroke="url(#paint1_linear_249_803)" stroke-width="0.5"/>
<path d="M508.26 270.311C494.954 341.933 363.061 368.476 285.869 394.69C208.678 420.905 184.528 419.012 137.742 396.141C90.9564 373.271 78.8205 355.023 61.2976 284.912C43.7746 214.802 -6.45984 108.361 53.6319 59.6089C113.724 10.8571 255.024 7.00753 349.738 50.9038C444.452 94.8001 521.566 198.689 508.26 270.311ZM508.26 270.311C494.954 341.933 363.061 368.476 285.869 394.69" stroke="url(#paint2_linear_249_803)" stroke-width="0.5"/>
<path d="M496.215 267.65C483.574 335.691 358.275 360.906 284.943 385.81C211.611 410.714 188.669 408.916 144.222 387.189C99.7759 365.462 88.2469 348.127 71.6001 281.521C54.9533 214.916 7.23056 113.797 64.3178 67.4828C121.405 21.1686 255.64 17.5115 345.619 59.2129C435.597 100.914 508.855 199.609 496.215 267.65ZM496.215 267.65C483.574 335.691 358.275 360.906 284.943 385.81" stroke="url(#paint3_linear_249_803)" stroke-width="0.5"/>
<path d="M484.17 264.989C472.195 329.449 353.49 353.337 284.018 376.93C214.546 400.523 192.811 398.819 150.704 378.236C108.596 357.653 97.6742 341.23 81.9035 278.13C66.1328 215.03 20.9218 119.233 75.0044 75.3566C129.087 31.48 256.257 28.0154 341.5 67.522C426.743 107.029 496.146 200.529 484.17 264.989ZM484.17 264.989C472.195 329.449 353.49 353.337 284.018 376.93" stroke="url(#paint4_linear_249_803)" stroke-width="0.5"/>
<path d="M472.124 262.327C460.814 323.206 348.704 345.767 283.092 368.05C217.479 390.332 196.952 388.723 157.184 369.283C117.416 349.843 107.1 334.333 92.2059 274.739C77.3114 215.144 34.6121 124.67 85.6901 83.2306C136.768 41.7916 256.873 38.5194 337.38 75.8313C417.888 113.143 483.434 201.449 472.124 262.327ZM472.124 262.327C460.814 323.206 348.704 345.767 283.092 368.05" stroke="url(#paint5_linear_249_803)" stroke-width="0.5"/>
<path d="M460.079 259.666C449.434 316.964 343.919 338.198 282.166 359.17C220.413 380.141 201.093 378.627 163.664 360.331C126.235 342.034 116.527 327.436 102.508 271.347C88.49 215.259 48.3024 130.106 96.3759 91.1045C144.449 52.1031 257.489 49.0234 333.261 84.1405C409.032 119.257 470.724 202.369 460.079 259.666ZM460.079 259.666C449.434 316.964 343.919 338.198 282.166 359.17" stroke="url(#paint6_linear_249_803)" stroke-width="0.5"/>
<path d="M448.033 257.005C438.054 310.722 339.133 330.629 281.24 350.29C223.346 369.951 205.234 368.531 170.144 351.378C135.055 334.225 125.953 320.54 112.811 267.956C99.6687 215.373 61.9928 135.543 107.062 98.9787C152.131 62.4148 258.106 59.5277 329.141 92.4499C400.177 125.372 458.013 203.289 448.033 257.005ZM448.033 257.005C438.054 310.722 339.133 330.629 281.24 350.29" stroke="url(#paint7_linear_249_803)" stroke-width="0.5"/>
<path d="M435.988 254.344C426.674 304.48 334.348 323.06 280.314 341.41C226.28 359.76 209.375 358.435 176.625 342.426C143.875 326.416 135.38 313.643 123.114 264.565C110.848 215.488 75.6839 140.979 117.748 106.853C159.812 72.7266 258.722 70.0319 325.022 100.759C391.322 131.487 445.302 204.209 435.988 254.344ZM435.988 254.344C426.674 304.48 334.348 323.06 280.314 341.41" stroke="url(#paint8_linear_249_803)" stroke-width="0.5"/>
<path d="M423.942 251.683C415.293 298.238 329.562 315.49 279.388 332.53C229.214 349.569 213.516 348.339 183.105 333.473C152.695 318.607 144.806 306.746 133.416 261.174C122.027 215.602 89.3741 146.415 128.434 114.727C167.493 83.038 259.339 80.5358 320.903 109.068C382.467 137.601 432.591 205.129 423.942 251.683ZM423.942 251.683C415.293 298.238 329.562 315.49 279.388 332.53" stroke="url(#paint9_linear_249_803)" stroke-width="0.5"/>
<path d="M411.898 249.022C403.914 291.995 324.778 307.921 278.463 323.65C232.148 339.378 217.658 338.242 189.586 324.52C161.515 310.798 154.233 299.849 143.72 257.783C133.206 215.716 103.065 151.852 139.12 122.601C175.175 93.3496 259.956 91.0399 316.784 117.378C373.613 143.715 419.881 206.049 411.898 249.022ZM411.898 249.022C403.914 291.995 324.778 307.921 278.463 323.65" stroke="url(#paint10_linear_249_803)" stroke-width="0.5"/>
<path d="M399.852 246.361C392.533 285.753 319.992 300.351 277.537 314.769C235.081 329.187 221.799 328.146 196.067 315.568C170.335 302.989 163.66 292.953 154.022 254.392C144.385 215.831 116.756 157.288 149.806 130.475C182.857 103.661 260.572 101.544 312.665 125.687C364.757 149.83 407.17 206.969 399.852 246.361ZM399.852 246.361C392.533 285.753 319.992 300.351 277.537 314.769" stroke="url(#paint11_linear_249_803)" stroke-width="0.5"/>
<path d="M387.806 243.7C381.153 279.511 315.206 292.782 276.611 305.889C238.015 318.997 225.94 318.05 202.547 306.615C179.154 295.18 173.086 286.056 164.325 251C155.563 215.945 130.446 162.724 160.492 138.349C190.538 113.973 261.188 112.048 308.545 133.996C355.902 155.944 394.459 207.889 387.806 243.7ZM387.806 243.7C381.153 279.511 315.206 292.782 276.611 305.889" stroke="url(#paint12_linear_249_803)" stroke-width="0.5"/>
<path d="M375.761 241.038C369.774 273.268 310.421 285.213 275.685 297.009C240.949 308.806 230.082 307.954 209.028 297.662C187.974 287.37 182.513 279.159 174.628 247.609C166.743 216.059 144.137 168.161 171.178 146.222C198.22 124.284 261.805 122.552 304.426 142.305C347.048 162.059 381.749 208.808 375.761 241.038ZM375.761 241.038C369.774 273.268 310.421 285.213 275.685 297.009" stroke="url(#paint13_linear_249_803)" stroke-width="0.5"/>
<path d="M363.716 238.377C358.393 267.026 305.636 277.643 274.759 288.129C243.883 298.615 234.223 297.858 215.508 288.709C196.794 279.561 191.94 272.262 184.93 244.218C177.921 216.173 157.827 173.597 181.864 154.096C205.901 134.596 262.421 133.056 300.307 150.614C338.192 168.173 369.038 209.728 363.716 238.377ZM363.716 238.377C358.393 267.026 305.636 277.643 274.759 288.129" stroke="url(#paint14_linear_249_803)" stroke-width="0.5"/>
<path d="M351.671 235.716C347.013 260.784 300.851 270.074 273.834 279.249C246.817 288.424 238.364 287.762 221.989 279.757C205.614 271.752 201.367 265.366 195.234 240.827C189.101 216.288 171.518 179.034 192.551 161.97C213.583 144.907 263.038 143.56 296.188 158.924C329.338 174.287 356.328 210.649 351.671 235.716ZM351.671 235.716C347.013 260.784 300.851 270.074 273.834 279.249" stroke="url(#paint15_linear_249_803)" stroke-width="0.5"/>
<path d="M339.625 233.055C335.633 254.542 296.065 262.505 272.908 270.369C249.75 278.233 242.505 277.665 228.469 270.804C214.434 263.943 210.793 258.469 205.536 237.436C200.279 216.402 185.209 184.47 203.236 169.844C221.264 155.219 263.654 154.064 292.068 167.233C320.482 180.402 343.617 211.568 339.625 233.055ZM339.625 233.055C335.633 254.542 296.065 262.505 272.908 270.369" stroke="url(#paint16_linear_249_803)" stroke-width="0.5"/>
<path d="M327.579 230.394C324.253 248.3 291.279 254.935 271.982 261.489C252.684 268.043 246.646 267.569 234.95 261.852C223.253 256.134 220.219 251.572 215.839 234.045C211.458 216.517 198.899 189.907 213.922 177.719C228.945 165.531 264.27 164.568 287.949 175.542C311.627 186.516 330.906 212.489 327.579 230.394ZM327.579 230.394C324.253 248.3 291.279 254.935 271.982 261.489" stroke="url(#paint17_linear_249_803)" stroke-width="0.5"/>
<path d="M315.534 227.733C312.873 242.057 286.494 247.366 271.056 252.609C255.617 257.852 250.787 257.473 241.43 252.899C232.073 248.325 229.646 244.675 226.141 230.653C222.637 216.631 212.59 195.343 224.608 185.592C236.626 175.842 264.886 175.072 283.829 183.851C302.772 192.631 318.195 213.408 315.534 227.733ZM315.534 227.733C312.873 242.057 286.494 247.366 271.056 252.609" stroke="url(#paint18_linear_249_803)" stroke-width="0.5"/>
<path d="M303.489 225.072C301.493 235.815 281.709 239.796 270.13 243.729C258.551 247.661 254.929 247.377 247.911 243.946C240.893 240.516 239.073 237.779 236.444 227.262C233.816 216.745 226.281 200.779 235.294 193.466C244.308 186.154 265.503 185.576 279.71 192.161C293.918 198.745 305.485 214.328 303.489 225.072ZM303.489 225.072C301.493 235.815 281.709 239.796 270.13 243.729" stroke="url(#paint19_linear_249_803)" stroke-width="0.5"/>
<path d="M291.443 222.411C290.113 229.573 276.923 232.227 269.204 234.848C261.485 237.47 259.07 237.281 254.391 234.994C249.713 232.707 248.499 230.882 246.747 223.871C244.995 216.86 239.971 206.216 245.98 201.34C251.99 196.465 266.12 196.08 275.591 200.47C285.062 204.859 292.774 215.248 291.443 222.411ZM291.443 222.411C290.113 229.573 276.923 232.227 269.204 234.848" stroke="url(#paint20_linear_249_803)" stroke-width="0.5"/>
<path d="M279.398 219.749C278.733 223.33 272.138 224.658 268.279 225.968C264.419 227.279 263.212 227.184 260.872 226.041C258.533 224.897 257.926 223.985 257.05 220.479C256.174 216.974 253.662 211.652 256.667 209.214C259.671 206.777 266.736 206.584 271.472 208.779C276.208 210.974 280.063 216.168 279.398 219.749ZM279.398 219.749C278.733 223.33 272.138 224.658 268.279 225.968" stroke="url(#paint21_linear_249_803)" stroke-width="0.5"/>
<defs>
<linearGradient id="paint0_linear_249_803" x1="267.353" y1="0.680298" x2="267.353" y2="433.496" gradientUnits="userSpaceOnUse">
<stop offset="0.291667" stop-color="white"/>
<stop offset="1" stop-color="#FF77D9"/>
</linearGradient>
<linearGradient id="paint1_linear_249_803" x1="267.352" y1="10.5172" x2="267.352" y2="423.66" gradientUnits="userSpaceOnUse">
<stop offset="0.291667" stop-color="white"/>
<stop offset="1" stop-color="#FF77D9"/>
</linearGradient>
<linearGradient id="paint2_linear_249_803" x1="267.353" y1="20.3539" x2="267.353" y2="413.823" gradientUnits="userSpaceOnUse">
<stop offset="0.291667" stop-color="white"/>
<stop offset="1" stop-color="#FF77D9"/>
</linearGradient>
<linearGradient id="paint3_linear_249_803" x1="267.352" y1="30.1906" x2="267.352" y2="403.986" gradientUnits="userSpaceOnUse">
<stop offset="0.291667" stop-color="white"/>
<stop offset="1" stop-color="#FF77D9"/>
</linearGradient>
<linearGradient id="paint4_linear_249_803" x1="267.353" y1="40.0272" x2="267.353" y2="394.149" gradientUnits="userSpaceOnUse">
<stop offset="0.291667" stop-color="white"/>
<stop offset="1" stop-color="#FF77D9"/>
</linearGradient>
<linearGradient id="paint5_linear_249_803" x1="267.353" y1="49.8639" x2="267.353" y2="384.313" gradientUnits="userSpaceOnUse">
<stop offset="0.291667" stop-color="white"/>
<stop offset="1" stop-color="#FF77D9"/>
</linearGradient>
<linearGradient id="paint6_linear_249_803" x1="267.353" y1="59.7006" x2="267.353" y2="374.476" gradientUnits="userSpaceOnUse">
<stop offset="0.291667" stop-color="white"/>
<stop offset="1" stop-color="#FF77D9"/>
</linearGradient>
<linearGradient id="paint7_linear_249_803" x1="267.352" y1="69.5375" x2="267.352" y2="364.639" gradientUnits="userSpaceOnUse">
<stop offset="0.291667" stop-color="white"/>
<stop offset="1" stop-color="#FF77D9"/>
</linearGradient>
<linearGradient id="paint8_linear_249_803" x1="267.353" y1="79.3744" x2="267.353" y2="354.803" gradientUnits="userSpaceOnUse">
<stop offset="0.291667" stop-color="white"/>
<stop offset="1" stop-color="#FF77D9"/>
</linearGradient>
<linearGradient id="paint9_linear_249_803" x1="267.352" y1="89.211" x2="267.352" y2="344.966" gradientUnits="userSpaceOnUse">
<stop offset="0.291667" stop-color="white"/>
<stop offset="1" stop-color="#FF77D9"/>
</linearGradient>
<linearGradient id="paint10_linear_249_803" x1="267.353" y1="99.0477" x2="267.353" y2="335.129" gradientUnits="userSpaceOnUse">
<stop offset="0.291667" stop-color="white"/>
<stop offset="1" stop-color="#FF77D9"/>
</linearGradient>
<linearGradient id="paint11_linear_249_803" x1="267.353" y1="108.884" x2="267.353" y2="325.292" gradientUnits="userSpaceOnUse">
<stop offset="0.291667" stop-color="white"/>
<stop offset="1" stop-color="#FF77D9"/>
</linearGradient>
<linearGradient id="paint12_linear_249_803" x1="267.352" y1="118.721" x2="267.352" y2="315.456" gradientUnits="userSpaceOnUse">
<stop offset="0.291667" stop-color="white"/>
<stop offset="1" stop-color="#FF77D9"/>
</linearGradient>
<linearGradient id="paint13_linear_249_803" x1="267.353" y1="128.558" x2="267.353" y2="305.619" gradientUnits="userSpaceOnUse">
<stop offset="0.291667" stop-color="white"/>
<stop offset="1" stop-color="#FF77D9"/>
</linearGradient>
<linearGradient id="paint14_linear_249_803" x1="267.352" y1="138.394" x2="267.352" y2="295.782" gradientUnits="userSpaceOnUse">
<stop offset="0.291667" stop-color="white"/>
<stop offset="1" stop-color="#FF77D9"/>
</linearGradient>
<linearGradient id="paint15_linear_249_803" x1="267.353" y1="148.231" x2="267.353" y2="285.946" gradientUnits="userSpaceOnUse">
<stop offset="0.291667" stop-color="white"/>
<stop offset="1" stop-color="#FF77D9"/>
</linearGradient>
<linearGradient id="paint16_linear_249_803" x1="267.353" y1="158.068" x2="267.353" y2="276.109" gradientUnits="userSpaceOnUse">
<stop offset="0.291667" stop-color="white"/>
<stop offset="1" stop-color="#FF77D9"/>
</linearGradient>
<linearGradient id="paint17_linear_249_803" x1="267.352" y1="167.905" x2="267.352" y2="266.272" gradientUnits="userSpaceOnUse">
<stop offset="0.291667" stop-color="white"/>
<stop offset="1" stop-color="#FF77D9"/>
</linearGradient>
<linearGradient id="paint18_linear_249_803" x1="267.352" y1="177.741" x2="267.352" y2="256.435" gradientUnits="userSpaceOnUse">
<stop offset="0.291667" stop-color="white"/>
<stop offset="1" stop-color="#FF77D9"/>
</linearGradient>
<linearGradient id="paint19_linear_249_803" x1="267.353" y1="187.578" x2="267.353" y2="246.599" gradientUnits="userSpaceOnUse">
<stop offset="0.291667" stop-color="white"/>
<stop offset="1" stop-color="#FF77D9"/>
</linearGradient>
<linearGradient id="paint20_linear_249_803" x1="267.352" y1="197.415" x2="267.352" y2="236.762" gradientUnits="userSpaceOnUse">
<stop offset="0.291667" stop-color="white"/>
<stop offset="1" stop-color="#FF77D9"/>
</linearGradient>
<linearGradient id="paint21_linear_249_803" x1="267.353" y1="207.252" x2="267.353" y2="226.925" gradientUnits="userSpaceOnUse">
<stop offset="0.291667" stop-color="white"/>
<stop offset="1" stop-color="#FF77D9"/>
</linearGradient>
</defs>
</svg>
