<svg width="26" height="27" viewBox="0 0 26 27" fill="none" xmlns="http://www.w3.org/2000/svg">
<path d="M22.9998 26.5H22.8298C3.17976 25.37 0.389759 8.79 -0.000240801 3.73C-0.0316656 3.33658 0.0148478 2.94082 0.136634 2.56541C0.25842 2.19 0.453086 1.8423 0.709477 1.54225C0.965868 1.2422 1.27894 0.995688 1.63077 0.816839C1.98259 0.637991 2.36625 0.530322 2.75976 0.500001H8.26976C8.67032 0.499613 9.06176 0.619511 9.39339 0.844163C9.72502 1.06881 9.98155 1.38787 10.1298 1.76L11.6498 5.5C11.7961 5.86355 11.8324 6.26208 11.7542 6.64609C11.676 7.0301 11.4867 7.38267 11.2098 7.66L9.07976 9.81C9.41248 11.7007 10.3179 13.4437 11.6737 14.803C13.0294 16.1622 14.7699 17.0723 16.6598 17.41L18.8298 15.26C19.1113 14.9862 19.4671 14.8013 19.853 14.7283C20.2389 14.6554 20.6378 14.6977 20.9998 14.85L24.7698 16.36C25.1363 16.5129 25.449 16.7714 25.668 17.1027C25.8871 17.4339 26.0026 17.8229 25.9998 18.22V23.5C25.9998 24.2956 25.6837 25.0587 25.1211 25.6213C24.5585 26.1839 23.7954 26.5 22.9998 26.5ZM2.99976 2.5C2.73454 2.5 2.48019 2.60536 2.29265 2.79289C2.10512 2.98043 1.99976 3.23478 1.99976 3.5V3.58C2.45976 9.5 5.40976 23.5 22.9398 24.5C23.0711 24.5081 23.2028 24.4902 23.3273 24.4473C23.4517 24.4045 23.5665 24.3374 23.6649 24.2501C23.7634 24.1628 23.8437 24.0568 23.9011 23.9384C23.9586 23.82 23.9921 23.6914 23.9998 23.56V18.22L20.2298 16.71L17.3598 19.56L16.8798 19.5C8.17976 18.41 6.99976 9.71 6.99976 9.62L6.93976 9.14L9.77976 6.27L8.27976 2.5H2.99976Z" fill="white"/>
</svg>
